<?xml version="1.0" encoding="UTF-8" standalone="no"?>
<svg
   viewBox="0 0 512 512"
   version="1.1"
   id="svg14"
   sodipodi:docname="icon.svg"
   inkscape:version="1.2.1 (9c6d41e410, 2022-07-14)"
   xmlns:inkscape="http://www.inkscape.org/namespaces/inkscape"
   xmlns:sodipodi="http://sodipodi.sourceforge.net/DTD/sodipodi-0.dtd"
   xmlns="http://www.w3.org/2000/svg"
   xmlns:svg="http://www.w3.org/2000/svg">
  <sodipodi:namedview
     id="namedview16"
     pagecolor="#ffffff"
     bordercolor="#000000"
     borderopacity="0.25"
     inkscape:showpageshadow="2"
     inkscape:pageopacity="0.0"
     inkscape:pagecheckerboard="0"
     inkscape:deskcolor="#d1d1d1"
     showgrid="false"
     inkscape:zoom="1.6992188"
     inkscape:cx="256"
     inkscape:cy="256.29425"
     inkscape:window-width="1906"
     inkscape:window-height="1053"
     inkscape:window-x="7"
     inkscape:window-y="20"
     inkscape:window-maximized="1"
     inkscape:current-layer="svg14" />
  <defs
     id="defs4">
    <style
       id="style2">.cls-1{fill:#e5262a;}.cls-2{fill:#e5292b;}</style>
  </defs>
  <title
     id="title6">FG</title>
  <g
     id="FG"
     transform="matrix(1.9390823,0,0,1.9390823,-240.40507,-240.40507)">
    <g
       id="T">
      <path
         id="path35"
         class="cls-1"
         d="m 219.49,350.25 26.77,-150.57 c 25.52,0 33.57,2.8 34.73,14.22 0,0 17.12,-6.39 25.76,-19.35 -33.7,-15.61 -67.55,-16.32 -67.55,-16.32 l -19.76,24.06 h 0.05 l -19.76,-24.06 c 0,0 -33.85,0.7 -67.54,16.32 8.63,13 25.75,19.34 25.75,19.34 1.17,-11.42 9.21,-14.22 34.56,-14.23 l 27,150.59" />
      <path
         id="path37"
         class="cls-1"
         d="m 219.48,171.28 a 220.72,220.72 0 0 1 90.32,18.13 c 4.27,-7.68 5.37,-11.07 5.37,-11.07 a 261.87,261.87 0 0 0 -95.7,-18.65 261.77,261.77 0 0 0 -95.68,18.65 93.17,93.17 0 0 0 5.36,11.07 220.72,220.72 0 0 1 90.32,-18.13 v 0" />
    </g>
    <path
       class="cls-2"
       d="m 337,352.31 v -81.15 l -27.56,27 -9.05,-9.16 34.41,-33.73 -34.47,-34.7 9.17,-9.11 27.5,27.63 v -77.34 l 51.21,59.25 -35.06,34.37 34.91,35.14 z m 12.94,-81.85 v 45.87 l 20.69,-25.05 z m 0,-74 v 43.89 l 20.54,-20.13 z"
       id="path11" />
  </g>
</svg>
