<svg xmlns="http://www.w3.org/2000/svg" viewBox="0 0 512 512"><defs><style>.cls-1{fill:#fff;}</style></defs><title>FG2</title><g id="FG"><g id="T"><path id="path35" class="cls-1" d="M219.49,350.25l26.77-150.57c25.52,0,33.57,2.8,34.73,14.22,0,0,17.12-6.39,25.76-19.35-33.7-15.61-67.55-16.32-67.55-16.32l-19.76,24.06h.05l-19.76-24.06s-33.85.7-67.54,16.32c8.63,13,25.75,19.34,25.75,19.34,1.17-11.42,9.21-14.22,34.56-14.23l27,150.59"/><path id="path37" class="cls-1" d="M219.48,171.28a220.72,220.72,0,0,1,90.32,18.13c4.27-7.68,5.37-11.07,5.37-11.07a261.87,261.87,0,0,0-95.7-18.65,261.77,261.77,0,0,0-95.68,18.65,93.17,93.17,0,0,0,5.36,11.07,220.72,220.72,0,0,1,90.32-18.13h0"/></g><path class="cls-1" d="M337,352.31V271.16l-27.56,27L300.39,289l34.41-33.73-34.47-34.7,9.17-9.11L337,239.09V161.75L388.21,221l-35.06,34.37,34.91,35.14Zm12.94-81.85v45.87l20.69-25.05Zm0-74v43.89l20.54-20.13Z"/></g></svg>