<?xml version="1.0" encoding="utf-8"?>
<!-- Generator: Adobe Illustrator 24.0.1, SVG Export Plug-In . SVG Version: 6.00 Build 0)  -->
<svg version="1.1"
	 id="Layer_1" inkscape:version="0.91 r13725" sodipodi:docname="Tesla_Motors.svg" xmlns:cc="http://creativecommons.org/ns#" xmlns:dc="http://purl.org/dc/elements/1.1/" xmlns:inkscape="http://www.inkscape.org/namespaces/inkscape" xmlns:rdf="http://www.w3.org/1999/02/22-rdf-syntax-ns#" xmlns:sodipodi="http://sodipodi.sourceforge.net/DTD/sodipodi-0.dtd" xmlns:svg="http://www.w3.org/2000/svg"
	 xmlns="http://www.w3.org/2000/svg" xmlns:xlink="http://www.w3.org/1999/xlink" x="0px" y="0px" viewBox="0 0 512 512"
	 style="enable-background:new 0 0 512 512;" xml:space="preserve">
<style type="text/css">
	.st0{fill:#E82127;}
</style>
<sodipodi:namedview  bordercolor="#666666" borderlayer="false" borderopacity="1" fit-margin-bottom="0" fit-margin-left="0" fit-margin-right="0" fit-margin-top="0" gridtolerance="10" guidetolerance="10" id="namedview39" inkscape:current-layer="Layer_1" inkscape:cx="-15.338928" inkscape:cy="215.21533" inkscape:pageopacity="0" inkscape:pageshadow="2" inkscape:showpageshadow="false" inkscape:window-height="980" inkscape:window-maximized="1" inkscape:window-width="1920" inkscape:window-x="0" inkscape:window-y="34" inkscape:zoom="1.0423407" objecttolerance="10" pagecolor="#ffffff" showgrid="false">
	</sodipodi:namedview>
<g id="T" transform="translate(-33.796,-64.797)">
	<path id="path35" inkscape:connector-curvature="0" class="st0" d="M289.8,569.4l69.9-392.9c66.6,0,87.6,7.3,90.6,37.1
		c0,0,44.7-16.7,67.2-50.5c-87.9-40.7-176.2-42.6-176.2-42.6l-51.5,62.8l0.1,0l-51.5-62.8c0,0-88.3,1.8-176.2,42.6
		c22.5,33.8,67.2,50.5,67.2,50.5c3.1-29.8,24-37.1,90.2-37.2L289.8,569.4"/>
	<path id="path37" inkscape:connector-curvature="0" class="st0" d="M289.8,102.4c71.1-0.5,152.4,11,235.7,47.3
		c11.1-20,14-28.9,14-28.9c-91-36-176.3-48.3-249.7-48.6c-73.4,0.3-158.6,12.6-249.7,48.6c0,0,4.1,10.9,14,28.9
		C137.4,113.4,218.7,101.9,289.8,102.4L289.8,102.4"/>
</g>
</svg>
